<?xml version="1.0" encoding="utf-8" ?>
<svg baseProfile="full" height="297.0mm" version="1.1" width="210.0mm" xmlns="http://www.w3.org/2000/svg" xmlns:ev="http://www.w3.org/2001/xml-events" xmlns:xlink="http://www.w3.org/1999/xlink"><defs /><rect fill="white" height="297.0mm" width="210.0mm" x="0" y="0" /><rect fill="none" height="175.0mm" stroke="black" stroke-width="0.5" width="200.0mm" x="5.0mm" y="61.0mm" /><rect fill="black" height="25.0mm" width="25.0mm" x="5.0mm" y="61.0mm" /><rect fill="black" height="25.0mm" width="25.0mm" x="55.0mm" y="61.0mm" /><rect fill="black" height="25.0mm" width="25.0mm" x="105.0mm" y="61.0mm" /><rect fill="black" height="25.0mm" width="25.0mm" x="155.0mm" y="61.0mm" /><rect fill="black" height="25.0mm" width="25.0mm" x="30.0mm" y="86.0mm" /><rect fill="black" height="25.0mm" width="25.0mm" x="80.0mm" y="86.0mm" /><rect fill="black" height="25.0mm" width="25.0mm" x="130.0mm" y="86.0mm" /><rect fill="black" height="25.0mm" width="25.0mm" x="180.0mm" y="86.0mm" /><rect fill="black" height="25.0mm" width="25.0mm" x="5.0mm" y="111.0mm" /><rect fill="black" height="25.0mm" width="25.0mm" x="55.0mm" y="111.0mm" /><rect fill="black" height="25.0mm" width="25.0mm" x="105.0mm" y="111.0mm" /><rect fill="black" height="25.0mm" width="25.0mm" x="155.0mm" y="111.0mm" /><rect fill="black" height="25.0mm" width="25.0mm" x="30.0mm" y="136.0mm" /><rect fill="black" height="25.0mm" width="25.0mm" x="80.0mm" y="136.0mm" /><rect fill="black" height="25.0mm" width="25.0mm" x="130.0mm" y="136.0mm" /><rect fill="black" height="25.0mm" width="25.0mm" x="180.0mm" y="136.0mm" /><rect fill="black" height="25.0mm" width="25.0mm" x="5.0mm" y="161.0mm" /><rect fill="black" height="25.0mm" width="25.0mm" x="55.0mm" y="161.0mm" /><rect fill="black" height="25.0mm" width="25.0mm" x="105.0mm" y="161.0mm" /><rect fill="black" height="25.0mm" width="25.0mm" x="155.0mm" y="161.0mm" /><rect fill="black" height="25.0mm" width="25.0mm" x="30.0mm" y="186.0mm" /><rect fill="black" height="25.0mm" width="25.0mm" x="80.0mm" y="186.0mm" /><rect fill="black" height="25.0mm" width="25.0mm" x="130.0mm" y="186.0mm" /><rect fill="black" height="25.0mm" width="25.0mm" x="180.0mm" y="186.0mm" /><rect fill="black" height="25.0mm" width="25.0mm" x="5.0mm" y="211.0mm" /><rect fill="black" height="25.0mm" width="25.0mm" x="55.0mm" y="211.0mm" /><rect fill="black" height="25.0mm" width="25.0mm" x="105.0mm" y="211.0mm" /><rect fill="black" height="25.0mm" width="25.0mm" x="155.0mm" y="211.0mm" /><text fill="black" font-size="4mm" text-anchor="middle" x="105.0mm" y="244.0mm">Checkerboard 8x7 ô — góc trong: 7x6 — mỗi ô: 25mm</text><text fill="#444444" font-family="monospace" font-size="3mm" text-anchor="middle" x="105.0mm" y="250.0mm">ros2 run camera_calibration cameracalibrator --size 7x6 --square 0.025 --ros-args -r image:=/camera/imx335/image_raw -r camera:=/camera/imx335</text><text fill="red" font-size="3.5mm" text-anchor="middle" x="105.0mm" y="255.0mm">⚠ In đúng tỉ lệ 100% (không chọn 'Fit to page')</text></svg>