<?xml version="1.0" encoding="utf-8" ?>
<svg baseProfile="full" height="29.7cm" version="1.1" width="21.0cm" xmlns="http://www.w3.org/2000/svg" xmlns:ev="http://www.w3.org/2001/xml-events" xmlns:xlink="http://www.w3.org/1999/xlink"><defs><g id="marker"><rect fill="white" height="12.200000000000001cm" stroke="black" width="12.200000000000001cm" x="0cm" y="0cm" /><rect fill="none" height="7.799999999999999cm" stroke="black" width="7.799999999999999cm" x="2.2cm" y="2.2cm" /><circle cx="1.1cm" cy="1.1cm" r="0.9cm" /><circle cx="1.1cm" cy="11.1cm" r="0.9cm" /><circle cx="11.1cm" cy="1.1cm" r="0.9cm" /><circle cx="11.1cm" cy="11.1cm" r="0.9cm" /><circle cx="3.6cm" cy="1.1cm" r="0.9cm" /><circle cx="1.1cm" cy="3.6cm" r="0.9cm" /><circle cx="6.300000000000001cm" cy="1.1cm" r="0.9cm" /><circle cx="1.1cm" cy="6.300000000000001cm" r="0.9cm" /><circle cx="3.6cm" cy="11.1cm" r="0.9cm" /><circle cx="11.1cm" cy="3.6cm" r="0.9cm" /><circle cx="7.300000000000001cm" cy="11.1cm" r="0.9cm" /><circle cx="11.1cm" cy="7.300000000000001cm" r="0.9cm" /><text fill="black" textLength="10cm" x="4.1cm" y="13.2cm">| AB | BD | CD |</text><text fill="black" x="4.1cm" y="13.7cm">| 2.500cm | 7.500cm | 4.800cm |</text><text fill="black" x="4.1cm" y="14.2cm">| 2.500cm | 7.500cm | 3.800cm |</text><text fill="black" x="1.0999999999999996cm" y="13.7cm">Line Top:</text><text fill="black" x="1.0999999999999996cm" y="14.2cm">Line Bottom:</text><text fill="black" x="1.0999999999999996cm" y="15.2cm">Marker Size = 10.0cm</text><text fill="black" x="1.0999999999999996cm" y="15.7cm">Circle Radius = 0.9cm</text><text fill="black" x="1.0999999999999996cm" y="16.2cm">Circle Clearance = 0.2cm</text><text fill="black" x="1.0999999999999996cm" y="16.7cm">Cross-ratio 0: AB = 0.25,  AC= 0.52, CR= 0.3077</text><text fill="black" x="1.0999999999999996cm" y="17.2cm">Cross-ratio 1: AB = 0.25,  AC= 0.62, CR= 0.2043</text><circle cx="6.1cm" cy="6.1cm" fill="red" r="0.05cm" /><line stroke="rgb(10%,10%,16%)" x1="6.1cm" x2="8.1cm" y1="6.1cm" y2="6.1cm" /><line stroke="rgb(10%,10%,16%)" x1="6.1cm" x2="6.1cm" y1="6.1cm" y2="4.1cm" /><text fill="black" x="8.2cm" y="6.1cm">x</text><text fill="black" x="6.1cm" y="3.8999999999999995cm">y</text></g></defs><rect fill="white" height="29.7cm" stroke="none" width="21.0cm" x="0" y="0" /><use x="4.3999999999999995cm" xlink:href="#marker" y="8.75cm" /></svg>