<?xml version="1.0" encoding="utf-8" ?>
<svg baseProfile="full" height="29.7cm" version="1.1" width="21.0cm" xmlns="http://www.w3.org/2000/svg" xmlns:ev="http://www.w3.org/2001/xml-events" xmlns:xlink="http://www.w3.org/1999/xlink"><defs><g id="marker"><rect fill="white" height="22.2cm" stroke="black" width="22.2cm" x="0cm" y="0cm" /><rect fill="none" height="17.8cm" stroke="black" width="17.8cm" x="2.2cm" y="2.2cm" /><circle cx="1.1cm" cy="1.1cm" r="0.9cm" /><circle cx="1.1cm" cy="21.1cm" r="0.9cm" /><circle cx="21.1cm" cy="1.1cm" r="0.9cm" /><circle cx="21.1cm" cy="21.1cm" r="0.9cm" /><circle cx="10.1cm" cy="1.1cm" r="0.9cm" /><circle cx="1.1cm" cy="10.1cm" r="0.9cm" /><circle cx="16.1cm" cy="1.1cm" r="0.9cm" /><circle cx="1.1cm" cy="16.1cm" r="0.9cm" /><circle cx="9.1cm" cy="21.1cm" r="0.9cm" /><circle cx="21.1cm" cy="9.1cm" r="0.9cm" /><circle cx="15.9cm" cy="21.1cm" r="0.9cm" /><circle cx="21.1cm" cy="15.9cm" r="0.9cm" /><text fill="black" textLength="10cm" x="9.1cm" y="23.2cm">| AB | BD | CD |</text><text fill="black" x="9.1cm" y="23.7cm">| 9.000cm | 11.000cm | 5.000cm |</text><text fill="black" x="9.1cm" y="24.2cm">| 8.000cm | 12.000cm | 5.200cm |</text><text fill="black" x="6.1cm" y="23.7cm">Line Top:</text><text fill="black" x="6.1cm" y="24.2cm">Line Bottom:</text><text fill="black" x="6.1cm" y="25.2cm">Marker Size = 20.0cm</text><text fill="black" x="6.1cm" y="25.7cm">Circle Radius = 0.9cm</text><text fill="black" x="6.1cm" y="26.2cm">Circle Clearance = 0.2cm</text><text fill="black" x="6.1cm" y="26.7cm">Cross-ratio 0: AB = 0.45,  AC= 0.75, CR= 0.2727</text><text fill="black" x="6.1cm" y="27.2cm">Cross-ratio 1: AB = 0.40,  AC= 0.74, CR= 0.2342</text><circle cx="11.1cm" cy="11.1cm" fill="red" r="0.05cm" /><line stroke="rgb(10%,10%,16%)" x1="11.1cm" x2="13.1cm" y1="11.1cm" y2="11.1cm" /><line stroke="rgb(10%,10%,16%)" x1="11.1cm" x2="11.1cm" y1="11.1cm" y2="9.1cm" /><text fill="black" x="13.2cm" y="11.1cm">x</text><text fill="black" x="11.1cm" y="8.899999999999999cm">y</text></g></defs><rect fill="white" height="29.7cm" stroke="none" width="21.0cm" x="0" y="0" /><use x="-0.5999999999999996cm" xlink:href="#marker" y="3.75cm" /></svg>