<?xml version="1.0" encoding="utf-8" ?>
<svg baseProfile="full" height="29.7cm" version="1.1" width="21.0cm" xmlns="http://www.w3.org/2000/svg" xmlns:ev="http://www.w3.org/2001/xml-events" xmlns:xlink="http://www.w3.org/1999/xlink"><defs><g id="marker"><rect fill="white" height="19.999cm" stroke="black" width="19.999cm" x="0cm" y="0cm" /><rect fill="none" height="12.787cm" stroke="black" width="12.787cm" x="3.6060000000000003cm" y="3.6060000000000003cm" /><circle cx="1.8030000000000002cm" cy="1.8030000000000002cm" r="1.475cm" /><circle cx="1.8030000000000002cm" cy="18.196cm" r="1.475cm" /><circle cx="18.196cm" cy="1.8030000000000002cm" r="1.475cm" /><circle cx="18.196cm" cy="18.196cm" r="1.475cm" /><circle cx="6.7209cm" cy="1.8030000000000002cm" r="1.475cm" /><circle cx="1.8030000000000002cm" cy="6.7209cm" r="1.475cm" /><circle cx="10.819150000000002cm" cy="1.8030000000000002cm" r="1.475cm" /><circle cx="1.8030000000000002cm" cy="10.819150000000002cm" r="1.475cm" /><circle cx="5.90125cm" cy="18.196cm" r="1.475cm" /><circle cx="18.196cm" cy="5.90125cm" r="1.475cm" /><circle cx="13.2781cm" cy="18.196cm" r="1.475cm" /><circle cx="18.196cm" cy="13.2781cm" r="1.475cm" /><circle cx="9.999500000000001cm" cy="9.999500000000001cm" fill="red" r="0.05cm" /><line stroke="rgb(10%,10%,16%)" x1="9.999500000000001cm" x2="11.999500000000001cm" y1="9.999500000000001cm" y2="9.999500000000001cm" /><line stroke="rgb(10%,10%,16%)" x1="9.999500000000001cm" x2="9.999500000000001cm" y1="9.999500000000001cm" y2="7.999500000000001cm" /><text fill="black" x="12.0995cm" y="9.999500000000001cm">x</text><text fill="black" x="9.999500000000001cm" y="7.799500000000001cm">y</text></g></defs><rect fill="white" height="29.7cm" stroke="none" width="21.0cm" x="0" y="0" /><use x="0.5005000000000006cm" xlink:href="#marker" y="4.8505cm" /></svg>